<svg xmlns="http://www.w3.org/2000/svg" width="1280" height="820" viewBox="0 0 1280 820" role="img" aria-labelledby="title desc">
  <title id="title">IDX Stock Screener screener page</title>
  <desc id="desc">Dark themed screener page with filter controls and sortable Indonesian stock table.</desc>
  <rect width="1280" height="820" fill="#07111f"/>
  <circle cx="70" cy="90" r="220" fill="#0d3b66" opacity="0.35"/>
  <g font-family="Inter, ui-sans-serif, system-ui, -apple-system, BlinkMacSystemFont, 'Segoe UI', sans-serif">
    <text x="74" y="170" fill="#2cc5ff" font-size="18" letter-spacing="6">IDX STOCK SCREENER</text>
    <text x="312" y="140" fill="#d9e7f7" font-size="62" font-weight="800">Find Indonesian stocks</text>
    <text x="312" y="206" fill="#d9e7f7" font-size="62" font-weight="800">by valuation, momentum,</text>
    <text x="312" y="272" fill="#d9e7f7" font-size="62" font-weight="800">and risk signals.</text>
    <g transform="translate(820 52)">
      <rect width="104" height="38" rx="19" fill="#2f6df6"/>
      <text x="18" y="25" fill="#ffffff" font-size="17">Screener</text>
      <rect x="116" width="106" height="38" rx="19" fill="none" stroke="#23507f"/>
      <text x="132" y="25" fill="#d9e7f7" font-size="17">Watchlist</text>
      <rect x="234" width="78" height="38" rx="19" fill="none" stroke="#23507f"/>
      <text x="250" y="25" fill="#d9e7f7" font-size="17">Alerts</text>
      <rect x="324" width="94" height="38" rx="19" fill="none" stroke="#23507f"/>
      <text x="340" y="25" fill="#d9e7f7" font-size="17">Settings</text>
    </g>
    <g transform="translate(50 330)">
      <rect width="1180" height="110" rx="20" fill="#081526" stroke="#173d67"/>
      <text x="22" y="38" fill="#e6f0ff" font-size="18" font-weight="700">Filter rules</text>
      <rect x="22" y="56" width="76" height="36" rx="12" fill="#2f6df6"/>
      <text x="36" y="79" fill="#ffffff" font-size="13">Add rule</text>
    </g>
    <g transform="translate(50 470)">
      <rect width="1180" height="300" rx="20" fill="#081526" stroke="#173d67"/>
      <g fill="#d9e7f7" font-size="14" font-weight="700">
        <text x="35" y="58">ticker ↑</text><text x="300" y="58">price</text><text x="430" y="58">change1d</text><text x="555" y="58">rsi</text><text x="640" y="58">pe</text><text x="730" y="58">marketCap</text><text x="880" y="58">sector</text>
      </g>
      <line x1="22" y1="86" x2="1158" y2="86" stroke="#173d67"/>
      <g font-size="18">
        <g transform="translate(35 124)"><text fill="#e6f0ff" font-weight="800">ADRO</text><text x="260" fill="#d9e7f7">2.720</text><text x="370" fill="#00d46a">0.70%</text><text x="525" fill="#d9e7f7">69.3</text><text x="605" fill="#d9e7f7">6.2</text><text x="695" fill="#d9e7f7">73.0T</text><text x="850" fill="#d9e7f7">Energy</text></g>
        <g transform="translate(35 178)"><text fill="#e6f0ff" font-weight="800">ASII</text><text x="260" fill="#d9e7f7">5.606</text><text x="370" fill="#00d46a">0.68%</text><text x="525" fill="#d9e7f7">69.4</text><text x="605" fill="#d9e7f7">7.4</text><text x="695" fill="#d9e7f7">205.0T</text><text x="850" fill="#d9e7f7">Consumer Discretionary</text></g>
        <g transform="translate(35 232)"><text fill="#e6f0ff" font-weight="800">BBCA</text><text x="260" fill="#d9e7f7">10.323</text><text x="370" fill="#00d46a">0.66%</text><text x="525" fill="#d9e7f7">69.4</text><text x="605" fill="#d9e7f7">31.2</text><text x="695" fill="#d9e7f7">1180.0T</text><text x="850" fill="#d9e7f7">Financials</text></g>
      </g>
    </g>
  </g>
</svg>
